<svg width="25" height="21" viewBox="0 0 25 21" fill="none" xmlns="http://www.w3.org/2000/svg">
<path d="M23.2875 0.658936C23.8666 0.659076 24.2274 1.28794 23.9349 1.78784L13.2494 20.0417C12.9129 20.6161 12.05 20.5 11.8773 19.8572L9.1273 9.60132L9.10484 9.56909C9.08448 9.53382 9.06716 9.49757 9.05309 9.46069L1.53258 1.93921C1.06049 1.4667 1.39577 0.658936 2.06383 0.658936H23.2875ZM10.6625 9.53491L12.8617 17.7351L21.2347 3.4314L10.6625 9.53491ZM3.87437 2.15894L9.93687 8.22144L20.4388 2.15796L3.87437 2.15894Z" fill="#262626"/>
<path d="M23.2875 0.658936L23.2876 0.158936H23.2875V0.658936ZM23.9349 1.78784L24.3664 2.04044L24.3665 2.04033L23.9349 1.78784ZM13.2494 20.0417L13.6808 20.2945L13.6809 20.2943L13.2494 20.0417ZM11.8773 19.8572L11.3944 19.9867L11.3944 19.9869L11.8773 19.8572ZM9.1273 9.60132L9.61024 9.47182L9.58757 9.38725L9.5375 9.31542L9.1273 9.60132ZM9.10484 9.56909L8.67183 9.81909L8.68247 9.83753L8.69464 9.85499L9.10484 9.56909ZM9.05309 9.46069L9.52022 9.28241L9.48215 9.18266L9.40666 9.10716L9.05309 9.46069ZM1.53258 1.93921L1.17887 2.2926L1.179 2.29274L1.53258 1.93921ZM2.06383 0.658936V1.15894V0.658936ZM10.6625 9.53491L10.4125 9.10189L10.0801 9.29377L10.1795 9.66443L10.6625 9.53491ZM12.8617 17.7351L12.3787 17.8646L12.6887 19.0203L13.2932 17.9877L12.8617 17.7351ZM21.2347 3.4314L21.6662 3.68399L22.6203 2.05414L20.9847 2.99838L21.2347 3.4314ZM3.87437 2.15894L3.87434 1.65894L2.66734 1.65901L3.52082 2.51249L3.87437 2.15894ZM9.93687 8.22144L9.58332 8.57499L9.85462 8.84628L10.1869 8.65445L9.93687 8.22144ZM20.4388 2.15796L20.6888 2.59097L22.305 1.65785L20.4388 1.65796L20.4388 2.15796ZM23.2875 0.658936L23.2873 1.15894C23.4806 1.15898 23.6007 1.36892 23.5034 1.53535L23.9349 1.78784L24.3665 2.04033C24.8541 1.20695 24.2527 0.15917 23.2876 0.158936L23.2875 0.658936ZM23.9349 1.78784L23.5034 1.53525L12.8179 19.7892L13.2494 20.0417L13.6809 20.2943L24.3664 2.04044L23.9349 1.78784ZM13.2494 20.0417L12.818 19.789C12.7058 19.9805 12.4177 19.9416 12.3602 19.7275L11.8773 19.8572L11.3944 19.9869C11.6823 21.0584 13.12 21.2516 13.6808 20.2945L13.2494 20.0417ZM11.8773 19.8572L12.3602 19.7277L9.61024 9.47182L9.1273 9.60132L8.64436 9.73081L11.3944 19.9867L11.8773 19.8572ZM9.1273 9.60132L9.5375 9.31542L9.51504 9.2832L9.10484 9.56909L8.69464 9.85499L8.7171 9.88721L9.1273 9.60132ZM9.10484 9.56909L9.53786 9.31909C9.53026 9.30594 9.5245 9.29363 9.52022 9.28241L9.05309 9.46069L8.58595 9.63897C8.60982 9.70151 8.63869 9.76169 8.67183 9.81909L9.10484 9.56909ZM9.05309 9.46069L9.40666 9.10716L1.88615 1.58568L1.53258 1.93921L1.179 2.29274L8.69951 9.81422L9.05309 9.46069ZM1.53258 1.93921L1.88629 1.58581C1.72952 1.4289 1.84034 1.15894 2.06383 1.15894L2.06383 0.658936L2.06383 0.158936C0.951204 0.158936 0.391468 1.5045 1.17887 2.2926L1.53258 1.93921ZM2.06383 0.658936V1.15894H23.2875V0.658936V0.158936H2.06383V0.658936ZM10.6625 9.53491L10.1795 9.66443L12.3787 17.8646L12.8617 17.7351L13.3446 17.6056L11.1454 9.40539L10.6625 9.53491ZM12.8617 17.7351L13.2932 17.9877L21.6662 3.68399L21.2347 3.4314L20.8032 3.1788L12.4302 17.4825L12.8617 17.7351ZM21.2347 3.4314L20.9847 2.99838L10.4125 9.10189L10.6625 9.53491L10.9124 9.96793L21.4847 3.86442L21.2347 3.4314ZM3.87437 2.15894L3.52082 2.51249L9.58332 8.57499L9.93687 8.22144L10.2904 7.86788L4.22793 1.80538L3.87437 2.15894ZM9.93687 8.22144L10.1869 8.65445L20.6888 2.59097L20.4388 2.15796L20.1888 1.72495L9.68687 7.78843L9.93687 8.22144ZM20.4388 2.15796L20.4388 1.65796L3.87434 1.65894L3.87437 2.15894L3.8744 2.65894L20.4389 2.65796L20.4388 2.15796Z" fill="black"/>
</svg>
